<svg xmlns:rdf="http://www.w3.org/1999/02/22-rdf-syntax-ns#" xmlns="http://www.w3.org/2000/svg" xmlns:cc="http://creativecommons.org/ns#" xmlns:dc="http://purl.org/dc/elements/1.1/" version="1.1" x="0px" y="0px" viewBox="0 0 100 125"><g transform="translate(0,-952.36218)"><path style="baseline-shift:baseline;block-progression:tb;color:#000000;direction:ltr;text-indent:0;enable-background:accumulate;text-transform:none;" fill="#000" d="M41.125,8.6875c-1.922,0-3.625,1.9575-3.625,4.6565v1.968h25v-1.968c0-2.699-1.703-4.6565-3.625-4.6565h-17.75zm-16.5,8.8125c-1.92,0-4.032,2.086-4.375,4.75l-0.562,4.031h13.062,9.125,25.375,12.125,0.937l-0.5-4.031c-0.341-2.663-2.517-4.75-4.437-4.75h-8.125-34.5-8.125zm-2.75,11l7.437,58.062c0.343,2.664,2.518,4.75,4.438,4.75h8.125,16.25,8.187c1.921,0,4.034-2.086,4.376-4.75l7.437-58.062h-10.875-25.375-9.125-10.875zm12.219,7.531a1.1001,1.1001,0,0,1,1.218,1.031l4.626,44.75a1.1001,1.1001,0,1,1,-2.188,0.219l-4.625-44.75a1.1001,1.1001,0,0,1,0.813,-1.219,1.1001,1.1001,0,0,1,0.156,-0.031zm31.625,0a1.1001,1.1001,0,0,1,0.093,0,1.1001,1.1001,0,0,1,1.126,1.25l-4.688,44.75a1.1001,1.1001,0,1,1,-2.188,-0.219l4.688-44.75a1.1001,1.1001,0,0,1,0.812,-1,1.1001,1.1001,0,0,1,0.157,-0.031zm-15.844,0.188a1.1001,1.1001,0,0,1,1.25,1.125v45.125a1.1001,1.1001,0,1,1,-2.187,0v-45.125a1.1001,1.1001,0,0,1,0.937,-1.125z" transform="translate(0,952.36218)"/></g><text x="0" y="115" fill="#000000" font-size="5px" font-weight="bold" font-family="'Helvetica Neue', Helvetica, Arial-Unicode, Arial, Sans-serif">Created by maspao</text><text x="0" y="120" fill="#000000" font-size="5px" font-weight="bold" font-family="'Helvetica Neue', Helvetica, Arial-Unicode, Arial, Sans-serif">from the Noun Project</text></svg>